# xmcd
#
# Track frame offsets:
#	150
#	11963
#	23090
#	37736
#	50076
#	62689
#	74813
#	87129
#	99181
#	110205
#	122921
#	135354
#	147481
#	157553
#	170304
#	181054
#	193898
#	205814
#	218713
#	229666
#	241296
#	252331
#	264455
#	277666
#	291136
#
# Disc length: 4135 seconds
#
# Revision: 0
# Processed by: cddbd v1.5.2PL0 Copyright (c) Steve Scherf et al.
# Submitted via: EasyCDDAExtractor 2010.6.0.0
#
DISCID=62102519
DTITLE=Various Artist - Bluegrass - Historic Cuts - Folk Star - Mutual Sides 
DTITLE=Cd C
DYEAR=1900
DGENRE=
TTITLE0=Neaves Glenn - Black Mountain Rag
TTITLE1=Neaves Glenn - Old Swinging Bridge
TTITLE2=Scotty and Tar Heel Ruby - When We Say Goodbye
TTITLE3=Stone Dee - Square Dance Rag
TTITLE4=Stone Dee - Answer To Little Pal
TTITLE5=Stone Dee - Mountain Swing
TTITLE6=Stone Dee - Is There Any Harm To Dream
TTITLE7=Stone Dee - Fiddler's Dream
TTITLE8=Brammer Brothers - Tell Me Truly Little Darling
TTITLE9=Brammer Brothers - Virginia Waltz
TTITLE10=Bowes Brothers - Mother Won't Grow Old So Soon
TTITLE11=Bowes Brothers - Stop Knocking On My Door
TTITLE12=Rocky Mountain Boys - Church Of God
TTITLE13=Murphy Fred - You'll Always Be My Blue Eyed Darling
TTITLE14=Murphy Fred - I Want To Be Ready
TTITLE15=Stone Dee - I'm Lost Without You
TTITLE16=Stone Dee - Heads You Win Tails I Lose
TTITLE17=Knittel Ronnie - Hoston Valley Breakdown
TTITLE18=Knittel Ronnie - I Can Thank My Lucky Stars
TTITLE19=Reedy John - Somebody Touched Me
TTITLE20=Sauceman Carl - White Cross Marks The Grave
TTITLE21=Sauceman Carl - I'll Be An Angel Too
TTITLE22=Johnny and Jack - Too Many Blues
TTITLE23=Turner Brothers - All Night Long
TTITLE24=Massey Family - Piney Woods
EXTD=
EXTT0=
EXTT1=
EXTT2=
EXTT3=
EXTT4=
EXTT5=
EXTT6=
EXTT7=
EXTT8=
EXTT9=
EXTT10=
EXTT11=
EXTT12=
EXTT13=
EXTT14=
EXTT15=
EXTT16=
EXTT17=
EXTT18=
EXTT19=
EXTT20=
EXTT21=
EXTT22=
EXTT23=
EXTT24=
PLAYORDER=
